<?xml version="1.0" standalone="no"?><!DOCTYPE svg PUBLIC "-//W3C//DTD SVG 1.1//EN" "http://www.w3.org/Graphics/SVG/1.1/DTD/svg11.dtd"><svg t="1524406643725" class="icon" style="" viewBox="0 0 1024 1024" version="1.1" xmlns="http://www.w3.org/2000/svg" p-id="1066" xmlns:xlink="http://www.w3.org/1999/xlink" width="28" height="28"><defs><style type="text/css"></style></defs><path d="M792.064 830.464H230.4c-45.568 0-82.432-42.496-82.432-94.72V289.792c0-52.224 36.864-94.72 82.432-94.72h561.664c45.568 0 82.432 42.496 82.432 94.72v446.464c-0.512 52.224-37.376 94.208-82.432 94.208zM214.528 442.88v293.376c0 16.896 9.216 28.16 15.872 28.16h561.664c6.144 0 15.872-11.264 15.872-28.16V442.88H214.528z m0-66.56h592.896V289.792c0-16.896-9.216-28.16-15.872-28.16H230.4c-6.144 0-15.872 11.264-15.872 28.16v86.528z" fill="#adadad" p-id="1067"></path><path d="M432.128 602.112H284.16c-18.432 0-33.28-14.848-33.28-33.28s14.848-33.28 33.28-33.28h147.968c18.432 0 33.28 14.848 33.28 33.28s-14.848 33.28-33.28 33.28zM508.928 695.296H284.16c-18.432 0-33.28-14.848-33.28-33.28s14.848-33.28 33.28-33.28h224.768c18.432 0 33.28 14.848 33.28 33.28s-14.848 33.28-33.28 33.28z" fill="#adadad" p-id="1068"></path></svg>